<svg
        xmlns="http://www.w3.org/2000/svg"
        width="640"
        height="400"
        viewBox="0 0 640 400"

        fill="#f009"
        stroke="none"
      >
        <path
          class="avocado_1"
          d="
            M 76 320
            h 4
            l 34 12
            l 14 16
            v 17
            l -12 15
            l -12 4
            h -9
            l -10 -4
            l -10 -9
            l -8 -18
            l -3 -12
            l 3 -17
            Z
          "
        />
        <path
          class="pepper"
          d="
            M 62 146
            h 8
            l 17 8
            l 10 10
            l 2 -4
            l 13 -10
            l 15 -2
            l 4 4
            v 3
            l -2 4
            l -3 4
            h -10
            l -10 3
            l -2 4
            l -2 3
            h -13
            l -7 -10
            l -10 -2
            h -10
            l -5 -10
            l 3 -4
            Z
          "
        />
        <path
          class="kiwi"
          d="
            M 245 295
            h 10
            l 12 6
            l 10 20
            l 2 22
            l -10 16
            h -7
            l -10 8
            l -10 -2
            l -10 -8
            l -13 -20
            v -18
            l 4 -10
            l 4 -6
            l 6 -4
            Z
          "
        />
        <path
          class="apple"
          d="
            M 355 278
            l 5 3
            l -2 5
            l 16 2
            l 9 3
            l 9 12
            l 2 15
            l -2 10
            l -5 10
            l -7 10
            l -12 10
            l -20 8
            h -10
            l -10 -5
            l -8 -14
            l -10 -2
            l -6 -4
            l -3 -20
            l 4 -20
            l 6 -13
            l 10 -7
            l 12 -4
            h 11
            l 6 5
            Z
          "
        />
      </svg>
      